<?xml version="1.0" encoding="utf-8" ?>
<svg xmlns="http://www.w3.org/2000/svg" xmlns:xlink="http://www.w3.org/1999/xlink" width="17" height="17">
	<defs>
		<clipPath id="clip_0">
			<path d="M31.2503 -45.45L-635.65 -45.45Q-635.844 -45.45 -636.036 -45.4323Q-636.228 -45.4146 -636.415 -45.3793Q-636.602 -45.344 -636.784 -45.2915Q-636.965 -45.2389 -637.138 -45.1695Q-637.312 -45.1001 -637.476 -45.0144Q-637.641 -44.9288 -637.795 -44.8275Q-637.949 -44.7262 -638.092 -44.6102Q-638.234 -44.4941 -638.364 -44.3643Q-638.494 -44.2345 -638.61 -44.0919Q-638.726 -43.9493 -638.827 -43.7951Q-638.929 -43.6409 -639.014 -43.4764Q-639.1 -43.3119 -639.169 -43.1383Q-639.239 -42.9648 -639.291 -42.7837Q-639.344 -42.6027 -639.379 -42.4155Q-639.414 -42.2283 -639.432 -42.0365Q-639.45 -41.8448 -639.45 -41.65L-639.45 79.95Q-639.45 80.1448 -639.432 80.3365Q-639.414 80.5283 -639.379 80.7155Q-639.344 80.9026 -639.291 81.0837Q-639.239 81.2648 -639.169 81.4383Q-639.1 81.6118 -639.014 81.7764Q-638.929 81.9409 -638.827 82.0951Q-638.726 82.2492 -638.61 82.3918Q-638.494 82.5344 -638.364 82.6643Q-638.234 82.7941 -638.092 82.9101Q-637.949 83.0262 -637.795 83.1275Q-637.641 83.2287 -637.476 83.3144Q-637.312 83.4001 -637.138 83.4695Q-636.965 83.5389 -636.784 83.5915Q-636.602 83.644 -636.415 83.6793Q-636.228 83.7146 -636.036 83.7323Q-635.844 83.75 -635.65 83.75L31.2503 83.75Q31.4451 83.75 31.6368 83.7323Q31.8286 83.7146 32.0158 83.6793Q32.203 83.644 32.384 83.5915Q32.5651 83.5389 32.7386 83.4695Q32.9121 83.4001 33.0767 83.3144Q33.2412 83.2287 33.3954 83.1275Q33.5495 83.0262 33.6921 82.9101Q33.8347 82.7941 33.9646 82.6643Q34.0944 82.5344 34.2105 82.3918Q34.3265 82.2492 34.4278 82.0951Q34.529 81.9409 34.6147 81.7764Q34.7004 81.6118 34.7698 81.4383Q34.8392 81.2648 34.8918 81.0837Q34.9443 80.9026 34.9796 80.7155Q35.0149 80.5283 35.0326 80.3365Q35.0503 80.1448 35.0503 79.95L35.0503 -41.65Q35.0503 -41.8448 35.0326 -42.0365Q35.0149 -42.2283 34.9796 -42.4155Q34.9443 -42.6027 34.8918 -42.7838Q34.8392 -42.9648 34.7698 -43.1383Q34.7004 -43.3119 34.6147 -43.4764Q34.529 -43.6409 34.4278 -43.7951Q34.3265 -43.9493 34.2105 -44.0919Q34.0944 -44.2345 33.9646 -44.3643Q33.8347 -44.4941 33.6921 -44.6102Q33.5495 -44.7262 33.3954 -44.8275Q33.2412 -44.9287 33.0767 -45.0144Q32.9121 -45.1001 32.7386 -45.1695Q32.5651 -45.2389 32.384 -45.2915Q32.203 -45.344 32.0158 -45.3793Q31.8286 -45.4146 31.6368 -45.4323Q31.4451 -45.45 31.2503 -45.45Z" clip-rule="evenodd"/>
		</clipPath>
	</defs>
	<g clip-path="url(#clip_0)">
		<path fill="rgb(255,255,255)" stroke="none" transform="matrix(0.95 0 0 0.95 3.12988 2.43005)" d="M5.2 10.4C2.32812 10.4 0 8.07188 0 5.2C0 2.32812 2.32812 0 5.2 0C8.07188 0 10.4 2.32812 10.4 5.2C10.4 6.46094 9.95119 7.61706 9.2046 8.51732L9.88759 9.2003C10.0774 9.39009 10.0774 9.6978 9.88759 9.88759C9.6978 10.0774 9.39009 10.0774 9.2003 9.88759L8.51732 9.2046C7.61706 9.95119 6.46094 10.4 5.2 10.4ZM7.78971 7.70069C7.77325 7.71338 7.75742 7.72726 7.74234 7.74234C7.72726 7.75742 7.71338 7.77325 7.70069 7.78971C7.05307 8.4152 6.17147 8.8 5.2 8.8C3.21177 8.8 1.6 7.18823 1.6 5.2C1.6 3.21177 3.21177 1.6 5.2 1.6C7.18823 1.6 8.8 3.21177 8.8 5.2C8.8 6.17147 8.4152 7.05307 7.78971 7.70069Z" fill-rule="evenodd"/>
	</g>
	<defs>
		<clipPath id="clip_1">
			<path d="M3.12988 7.37005C3.12988 10.0983 5.3416 12.3101 8.06988 12.3101C9.26778 12.3101 10.3661 11.8837 11.2213 11.1744L11.8702 11.8233C12.0505 12.0036 12.3428 12.0036 12.5231 11.8233C12.7034 11.643 12.7034 11.3506 12.5231 11.1703L11.8743 10.5215C12.5835 9.66626 13.0099 8.56795 13.0099 7.37005C13.0099 4.64177 10.7982 2.43005 8.06988 2.43005C5.3416 2.43005 3.12988 4.64177 3.12988 7.37005ZM10.4851 9.78528C10.4994 9.77095 10.5145 9.75776 10.5301 9.74571C11.1243 9.13047 11.4899 8.29295 11.4899 7.37005C11.4899 5.48124 9.9587 3.95005 8.06988 3.95005C6.18107 3.95005 4.64988 5.48124 4.64988 7.37005C4.64988 9.25887 6.18107 10.7901 8.06988 10.7901C8.99278 10.7901 9.8303 10.4245 10.4455 9.83027C10.4576 9.81464 10.4708 9.79961 10.4851 9.78528Z" clip-rule="evenodd"/>
		</clipPath>
	</defs>
	<g clip-path="url(#clip_1)">
		<path fill="rgb(99,99,99)" stroke="none" transform="matrix(0.95 0 0 0.95 0.850098 0.150024)" d="M0 0L16.8 0L16.8 16.8L0 16.8L0 0Z"/>
	</g>

</svg>